<svg width="129" height="27" viewBox="0 0 129 27" fill="none" xmlns="http://www.w3.org/2000/svg">
<g clip-path="url(#clip0_169_13861)">
<g clip-path="url(#clip1_169_13861)">
<path d="M83.4481 12.6718C83.0562 13.0625 83.0561 13.6972 83.448 14.088L91.577 22.1945C91.9704 22.5868 91.9708 23.2278 91.5469 23.587C89.8002 25.067 87.698 26.0778 85.4392 26.5146C82.8495 27.0155 80.1695 26.7395 77.7362 25.7215C75.3029 24.7035 73.2248 22.9888 71.7633 20.793C70.3018 18.5973 69.522 16.0184 69.522 13.3807C69.522 10.7431 70.3018 8.16423 71.7633 5.96847C73.2248 3.77272 75.3029 2.05805 77.7362 1.04002C80.1695 0.022002 82.8495 -0.253932 85.4392 0.246913C87.698 0.683753 89.8002 1.69453 91.5468 3.17451C91.9708 3.5337 91.9703 4.17474 91.5768 4.56705L83.4481 12.6718Z" fill="#7448D0"></path>
<path d="M18.6076 18.6846V2.15401C18.6076 1.95891 18.6851 1.7718 18.8231 1.63384C18.961 1.49589 19.1481 1.4184 19.3432 1.4184H22.5254C22.7205 1.4184 22.9076 1.49589 23.0455 1.63384C23.1835 1.7718 23.261 1.95891 23.261 2.15401V20.6709H20.5938C20.333 20.6709 20.0747 20.6195 19.8338 20.5197C19.5928 20.4199 19.3738 20.2735 19.1894 20.0891C19.0049 19.9047 18.8586 19.6857 18.7588 19.4447C18.659 19.2038 18.6076 18.9455 18.6076 18.6846Z" fill="#2D1D51"></path>
<path d="M25.1828 18.6846V2.15401C25.1828 1.95891 25.2603 1.7718 25.3983 1.63384C25.5362 1.49589 25.7234 1.4184 25.9185 1.4184H29.1006C29.2957 1.4184 29.4828 1.49589 29.6208 1.63384C29.7587 1.7718 29.8362 1.95891 29.8362 2.15401V20.6709H27.17C26.9091 20.671 26.6507 20.6197 26.4096 20.5199C26.1685 20.4202 25.9495 20.2739 25.7649 20.0894C25.5804 19.905 25.434 19.686 25.3341 19.4449C25.2342 19.2039 25.1828 18.9455 25.1828 18.6846Z" fill="#2D1D51"></path>
<path d="M31.6998 13.4809C31.6998 9.05537 35.4726 6.12482 39.6538 6.12482C43.835 6.12482 47.6397 9.05537 47.6397 13.4809C47.6397 17.8772 43.8359 20.8069 39.6538 20.8069C35.4717 20.8069 31.6998 17.8772 31.6998 13.4809ZM42.8925 13.4809C42.8943 12.8399 42.7059 12.2129 42.3511 11.6791C41.9963 11.1453 41.4911 10.7288 40.8995 10.4822C40.3079 10.2357 39.6564 10.1703 39.0276 10.2942C38.3987 10.4181 37.8208 10.7259 37.3669 11.1784C36.9131 11.631 36.6037 12.2081 36.478 12.8366C36.3523 13.4651 36.4159 14.1167 36.6608 14.709C36.9056 15.3014 37.3207 15.8077 37.8535 16.164C38.3863 16.5202 39.0129 16.7104 39.6538 16.7104C40.0806 16.7188 40.5048 16.6411 40.9009 16.4819C41.297 16.3227 41.657 16.0852 41.9593 15.7838C42.2616 15.4823 42.5001 15.123 42.6604 14.7273C42.8207 14.3317 42.8996 13.9077 42.8925 13.4809Z" fill="#2D1D51"></path>
<path d="M64.6784 6.26422H69.0428L64.6182 20.6664H60.8618L58.3277 10.4655L55.9131 20.6664H52.1566L47.5835 6.26422H51.9479L54.2431 13.5902L56.5384 6.26422H60.0861L62.3813 13.5902L64.6784 6.26422Z" fill="#2D1D51"></path>
<path d="M113.777 6.13117H118.426V20.7522H113.777V18.5645C113.219 19.2508 112.513 19.8034 111.713 20.1819C110.913 20.5604 110.039 20.7553 109.154 20.7522C105.036 20.7522 102.113 17.7313 102.113 13.3961C102.113 9.03076 105.006 6.13117 109.188 6.13117C110.051 6.10402 110.91 6.26733 111.704 6.6095C112.497 6.95167 113.205 7.46431 113.778 8.11102L113.777 6.13117ZM113.621 13.3961C113.613 12.9597 113.518 12.5292 113.343 12.1296C113.168 11.73 112.915 11.3691 112.599 11.068C112.283 10.7669 111.91 10.5316 111.503 10.3755C111.095 10.2195 110.66 10.146 110.224 10.1592C109.788 10.1413 109.353 10.2117 108.946 10.3664C108.538 10.5211 108.165 10.7568 107.851 11.0593C107.537 11.3617 107.287 11.7247 107.117 12.1263C106.947 12.528 106.859 12.9599 106.861 13.3961C106.869 13.831 106.963 14.2599 107.139 14.6578C107.315 15.0556 107.568 15.4144 107.884 15.713C108.201 16.0117 108.573 16.2442 108.981 16.397C109.388 16.5498 109.821 16.6198 110.256 16.6029C111.125 16.6146 111.964 16.2854 112.593 15.686C113.222 15.0865 113.591 14.2644 113.621 13.3961Z" fill="#2D1D51"></path>
<path d="M11.664 6.13096H16.3128V20.7519H11.664V18.5643C11.1052 19.2506 10.4001 19.8033 9.60011 20.1818C8.80015 20.5603 7.92566 20.7551 7.04067 20.7519C2.92146 20.7519 0 17.7311 0 13.3959C0 9.03054 2.89229 6.13096 7.0744 6.13096C7.93797 6.10381 8.79692 6.26711 9.59028 6.60928C10.3836 6.95145 11.0919 7.46409 11.6649 8.1108L11.664 6.13096ZM11.5072 13.3959C11.4994 12.9596 11.4051 12.5292 11.2298 12.1296C11.0544 11.73 10.8015 11.3692 10.4856 11.0681C10.1698 10.767 9.79731 10.5316 9.38981 10.3756C8.98231 10.2195 8.54789 10.1459 8.11172 10.159C7.67582 10.1409 7.24075 10.2113 6.83279 10.3659C6.42482 10.5206 6.05241 10.7562 5.73801 11.0587C5.4236 11.3612 5.17372 11.7242 5.00344 12.1259C4.83316 12.5276 4.74601 12.9596 4.74725 13.3959C4.75517 13.8308 4.8498 14.2597 5.02561 14.6575C5.20141 15.0554 5.45486 15.4142 5.77108 15.7128C6.08731 16.0115 6.45996 16.244 6.8672 16.3968C7.27444 16.5496 7.70808 16.6196 8.14271 16.6026C9.0115 16.6144 9.8503 16.2852 10.4793 15.6857C11.1082 15.0863 11.4772 14.2642 11.5072 13.3959Z" fill="#2D1D51"></path>
<path d="M128.979 7.03343L128.999 10.9822H127.181V20.4129H122.532V10.9822H120.716V7.03343H122.532V3.62976C122.532 3.4616 122.581 3.29698 122.671 3.15544C122.762 3.0139 122.892 2.90138 123.045 2.83125L125.94 1.50042C126.074 1.4388 126.221 1.41186 126.368 1.42206C126.515 1.43227 126.657 1.47931 126.781 1.55884C126.905 1.63837 127.007 1.74783 127.078 1.87716C127.149 2.00649 127.186 2.15153 127.186 2.29893V7.03435L128.979 7.03343Z" fill="#2D1D51"></path>
<path d="M100.228 12.9785C100.228 9.22476 97.5702 6.57352 94.1118 5.94241C93.5383 5.83775 92.9635 6.06165 92.5507 6.47331L86.3352 12.6716C85.9434 13.0623 85.9434 13.6969 86.3352 14.0877L92.3833 20.1201C92.7721 20.5078 93.3046 20.7299 93.8495 20.6625C95.7486 20.4274 97.5326 19.5947 98.9373 18.2736L96.5491 15.3512C95.5295 16.2712 94.2104 16.7895 92.8373 16.8097C92.1002 16.8747 91.3625 16.6915 90.7415 16.2892C90.1205 15.8869 89.6518 15.2885 89.4099 14.5892H100.166C100.197 13.891 100.228 13.3741 100.228 12.9785ZM89.3808 11.943C89.5563 11.2387 89.9734 10.6183 90.5594 10.19C91.1454 9.76177 91.8632 9.55275 92.5875 9.59947C94.2547 9.59947 95.5427 10.5429 95.6065 11.943H89.3808Z" fill="#2D1D51"></path>
</g>
</g>
<defs>
<clipPath id="clip0_169_13861">
<rect width="129" height="26.7626" fill="white"></rect>
</clipPath>
<clipPath id="clip1_169_13861">
<rect width="129" height="26.7571" fill="white" transform="translate(0 0.00268555)"></rect>
</clipPath>
</defs>
</svg>