<svg width="36" height="30" viewBox="0 0 36 30" fill="none" xmlns="http://www.w3.org/2000/svg">
<path d="M16.327 14.205C15.8675 14.6431 15.8675 15.3549 16.3269 15.793L25.8574 24.8829C26.3186 25.3228 26.3191 26.0416 25.8221 26.4443C23.7743 28.1038 21.3097 29.2373 18.6615 29.7271C15.6253 30.2887 12.4832 29.9793 9.6304 28.8378C6.77756 27.6963 4.34126 25.7736 2.62774 23.3115C0.914225 20.8493 0 17.9577 0 15C0 12.0423 0.914225 9.15065 2.62774 6.68854C4.34126 4.22642 6.77756 2.30374 9.6304 1.16222C12.4832 0.0207016 15.6253 -0.288705 18.6615 0.272896C21.3097 0.762729 23.7742 1.89612 25.8221 3.55564C26.3191 3.9584 26.3185 4.6772 25.8572 5.1171L16.327 14.205Z" fill="#7448D0"></path>
<path d="M36 14.5491C36 10.3399 32.884 7.36709 28.8294 6.65941C28.157 6.54205 27.4831 6.79312 26.9991 7.25471L19.7121 14.2049C19.2527 14.643 19.2527 15.3546 19.712 15.7928L26.8029 22.557C27.2586 22.9918 27.883 23.2408 28.5219 23.1652C30.7484 22.9016 32.8399 21.9679 34.4867 20.4865L31.6868 17.2096C30.4914 18.2412 28.945 18.8223 27.3351 18.845C26.4709 18.9179 25.6061 18.7125 24.878 18.2614C24.15 17.8102 23.6004 17.1393 23.3168 16.3551H35.9273C35.9636 15.5722 36 14.9927 36 14.5491ZM23.2827 13.388C23.4884 12.5982 23.9774 11.9026 24.6645 11.4223C25.3515 10.9421 26.193 10.7077 27.0423 10.7601C28.9969 10.7601 30.507 11.818 30.5818 13.388H23.2827Z" fill="#050505"></path>
</svg>